# xmcd
#
# Track frame offsets:
# 150
# 20751
# 43285
# 64941
# 82132
# 103134
# 124641
# 145496
# 166133
# 181005
# 198309
# 219293
# 223685
#
# Disc length: 3234 seconds
#
# Revision: 0
# Processed by: cddbd v1.5.2PL0 Copyright (c) Steve Scherf et al.
# Submitted via: Audion 3.0.2 (http://www.panic.com/audion/)
#
DISCID=c30ca00d
DTITLE=High, Wide and Wonderful - Gerd
DYEAR=1900
DGENRE=
TTITLE0=High, Wide and Wonderful
TTITLE1=I Wanna Do Something Freaky To You
TTITLE2=Seduce Me
TTITLE3=Malagueña
TTITLE4=Far Away Places
TTITLE5=Clarao de Lua
TTITLE6=I Dream Of You
TTITLE7=Gallican
TTITLE8=Softly Sonata
TTITLE9=Que Arango
TTITLE10=Delissimo
TTITLE11=Another Kind Of Spring
TTITLE12=Suspect Moment
EXTD=
EXTT0=
EXTT1=
EXTT2=
EXTT3=
EXTT4=
EXTT5=
EXTT6=
EXTT7=
EXTT8=
EXTT9=
EXTT10=
EXTT11=
EXTT12=
PLAYORDER=
